<?xml version="1.0" standalone="no"?>
<!DOCTYPE svg PUBLIC "-//W3C//DTD SVG 20010904//EN"
 "http://www.w3.org/TR/2001/REC-SVG-20010904/DTD/svg10.dtd">
<svg version="1.0" xmlns="http://www.w3.org/2000/svg"
 width="16.000000pt" height="16.000000pt" viewBox="0 0 16.000000 16.000000"
 preserveAspectRatio="xMidYMid meet">
<metadata>
Created by potrace 1.11, written by Peter Selinger 2001-2013
</metadata>
<g transform="translate(0.000000,16.000000) scale(0.001993,-0.001993)"
fill="#000000" stroke="none">
<path d="M3849 8026 c-2 -2 -47 -6 -99 -10 -52 -3 -106 -8 -120 -10 -14 -3
-45 -7 -70 -10 -25 -3 -54 -8 -65 -10 -11 -2 -60 -11 -109 -21 -133 -24 -377
-97 -521 -155 -458 -183 -884 -482 -1190 -835 -33 -39 -66 -76 -73 -84 -7 -7
-39 -48 -71 -90 -364 -480 -575 -1029 -630 -1641 -9 -92 -7 -519 3 -860 3 -91
8 -282 11 -425 3 -143 7 -323 10 -400 2 -77 7 -273 10 -435 3 -162 8 -358 10
-435 2 -77 7 -266 10 -420 3 -154 8 -343 10 -420 2 -77 7 -273 10 -435 3 -162
8 -349 10 -415 2 -66 7 -266 11 -445 4 -179 8 -356 8 -395 l2 -70 34 0 c61 -1
192 15 290 35 731 148 1306 765 1387 1486 11 93 2 1052 -11 1222 0 9 -38 42
-84 73 -294 198 -566 477 -747 769 -191 309 -322 681 -360 1020 -3 30 -7 71
-10 90 -5 44 -7 378 -1 405 2 11 7 56 11 100 22 247 110 545 240 810 151 309
353 572 611 794 475 412 1061 626 1684 615 80 -1 170 -5 200 -9 30 -3 75 -9
100 -11 25 -3 79 -12 120 -20 41 -9 86 -17 100 -20 96 -19 328 -95 438 -145
307 -138 537 -295 767 -524 66 -66 132 -133 145 -150 281 -341 458 -699 545
-1100 27 -125 32 -156 40 -240 3 -33 8 -78 11 -100 6 -52 6 -328 0 -380 -3
-22 -8 -67 -11 -100 -6 -62 -12 -104 -20 -141 -3 -12 -7 -39 -11 -60 -25 -161
-119 -433 -215 -625 -250 -503 -637 -888 -1144 -1139 -242 -120 -483 -195
-755 -237 -125 -19 -473 -25 -610 -10 -236 25 -498 93 -731 192 -45 19 -84 33
-86 32 -27 -27 -36 -632 -10 -649 40 -26 425 -133 547 -152 227 -35 352 -46
540 -46 672 -1 1336 223 1880 635 781 592 1231 1485 1234 2455 1 251 -7 351
-44 572 -37 215 -117 491 -191 655 -10 24 -19 45 -19 48 0 11 -118 242 -160
316 -177 305 -401 571 -690 824 -57 49 -188 147 -285 212 -401 268 -876 444
-1345 498 -30 4 -68 8 -85 11 -39 5 -451 14 -456 10z"/>
<path d="M3799 7316 c-2 -2 -31 -6 -64 -10 -203 -21 -459 -89 -662 -176 -446
-191 -820 -507 -1092 -925 -85 -131 -196 -367 -250 -530 -91 -279 -119 -459
-119 -760 0 -214 11 -327 47 -498 143 -673 571 -1258 1171 -1600 100 -57 313
-154 351 -161 8 -1 23 -7 35 -13 23 -13 179 -58 274 -79 167 -38 360 -58 525
-57 175 1 186 2 179 15 -5 10 -4 10 5 2 8 -7 43 -7 124 3 335 41 675 162 964
343 572 360 964 930 1092 1590 11 58 23 137 27 175 3 39 8 84 10 100 5 42 5
345 0 375 -3 14 -7 50 -10 80 -17 166 -68 385 -131 556 -66 181 -225 476 -315
587 -5 6 -38 48 -72 91 -87 111 -195 223 -297 308 -47 40 -88 75 -91 78 -8 9
-142 103 -200 141 -148 97 -383 205 -571 262 -258 79 -426 104 -715 105 -117
0 -213 -1 -215 -2z m752 -643 c13 -16 12 -17 -3 -4 -10 7 -18 15 -18 17 0 8 8
3 21 -13z m170 -130 c13 -16 12 -17 -3 -4 -10 7 -18 15 -18 17 0 8 8 3 21 -13z
m274 -273 c242 -275 436 -662 520 -1034 30 -136 57 -328 46 -336 -4 -3 -31
-39 -59 -81 -291 -424 -736 -756 -1230 -919 -461 -152 -971 -160 -1441 -22
l-93 27 5 215 c9 328 52 550 164 830 127 320 295 574 543 820 127 126 143 140
262 228 298 219 608 357 960 428 121 24 136 29 126 43 -14 20 155 -151 197
-199z m532 174 c-3 -3 -12 -4 -19 -1 -8 3 -5 6 6 6 11 1 17 -2 13 -5z m-3766
-1901 c13 -16 12 -17 -3 -4 -10 7 -18 15 -18 17 0 8 8 3 21 -13z m74 -73 c10
-11 16 -20 13 -20 -3 0 -13 9 -23 20 -10 11 -16 20 -13 20 3 0 13 -9 23 -20z
m3682 -312 c-3 -8 -6 -5 -6 6 -1 11 2 17 5 13 3 -3 4 -12 1 -19z m-2760 -370
c-3 -8 -6 -5 -6 6 -1 11 2 17 5 13 3 -3 4 -12 1 -19z m2153 -751 c0 -2 -10
-12 -22 -23 l-23 -19 19 23 c18 21 26 27 26 19z"/>
<path d="M4726 5885 c-19 -14 -82 -29 -170 -40 -110 -13 -152 -53 -143 -132 9
-81 71 -113 150 -79 45 20 80 56 119 123 28 48 71 144 65 143 -1 0 -10 -7 -21
-15z"/>
<path d="M4210 5806 c-262 -71 -502 -220 -560 -347 -52 -116 0 -208 189 -333
82 -55 125 -74 309 -137 182 -63 272 -108 334 -170 102 -102 136 -251 84 -362
-50 -106 -174 -203 -348 -273 -43 -17 -81 -34 -84 -36 -8 -9 111 12 208 37
259 66 453 208 550 404 35 71 42 96 46 161 13 230 -143 426 -544 681 -140 89
-178 120 -200 161 -32 61 -5 140 68 202 24 19 41 35 38 35 -3 0 -43 -11 -90
-23z"/>
<path d="M3436 5109 c-61 -153 -61 -346 1 -494 28 -67 100 -169 148 -211 121
-103 245 -154 395 -161 159 -8 278 27 366 109 124 114 110 309 -28 379 -83 42
-161 31 -318 -46 -159 -77 -234 -87 -335 -41 -137 63 -217 220 -212 418 1 48
1 88 1 88 -1 0 -9 -19 -18 -41z"/>
</g>
</svg>
